HIERARCHY
ROOT Hips
{
	OFFSET -3.958830 18.904000 13.208200
	CHANNELS 6 Xposition Yposition Zposition Zrotation Yrotation Xrotation 
	JOINT LHipJoint
	{
		OFFSET 0.000000 0.000000 0.000000
		CHANNELS 3 Zrotation Yrotation Xrotation
		JOINT LeftUpLeg
		{
			OFFSET 1.800000 -1.400000 0.085000
			CHANNELS 3 Zrotation Yrotation Xrotation
			JOINT LeftLeg
			{
				OFFSET 2.215000 -6.000000 0.000000
				CHANNELS 3 Zrotation Yrotation Xrotation
				JOINT LeftFoot
				{
					OFFSET 2.500000 -6.900000 0.000000
					CHANNELS 3 Zrotation Yrotation Xrotation
					JOINT LeftToeBase
					{
						OFFSET 0.200000 -0.500000 1.950000
						CHANNELS 3 Zrotation Yrotation Xrotation
						End Site
						{
							OFFSET 0.000000 0.000000 0.000000
						}
					}
				}
			}
		}
	}
	JOINT RHipJoint
	{
		OFFSET 0.000000 0.000000 0.000000
		CHANNELS 3 Zrotation Yrotation Xrotation
		JOINT RightUpLeg
		{
			OFFSET -1.800000 -1.400000 0.085000
			CHANNELS 3 Zrotation Yrotation Xrotation
			JOINT RightLeg
			{
				OFFSET -2.215000 -6.000000 0.000000
				CHANNELS 3 Zrotation Yrotation Xrotation
				JOINT RightFoot
				{
					OFFSET -2.500000 -6.900000 0.000000
					CHANNELS 3 Zrotation Yrotation Xrotation
					JOINT RightToeBase
					{
						OFFSET -0.200000 -0.500000 1.950000
						CHANNELS 3 Zrotation Yrotation Xrotation
						End Site
						{
							OFFSET 0.000000 0.000000 0.000000
						}
					}
				}
			}
		}
	}
	JOINT LowerBack
	{
		OFFSET 0.000000 0.000000 0.000000
		CHANNELS 3 Zrotation Yrotation Xrotation
		JOINT Spine
		{
			OFFSET -0.087000 1.940000 -0.288900
			CHANNELS 3 Zrotation Yrotation Xrotation
			JOINT Spine1
			{
				OFFSET 0.000000 1.950000 0.060000
				CHANNELS 3 Zrotation Yrotation Xrotation
				JOINT Neck
				{
					OFFSET 0.000000 0.000000 0.000000
					CHANNELS 3 Zrotation Yrotation Xrotation
					JOINT Neck1
					{
						OFFSET 0.000000 1.600000 0.340000
						CHANNELS 3 Zrotation Yrotation Xrotation
						JOINT Head
						{
							OFFSET 0.000000 1.667000 -0.240000
							CHANNELS 3 Zrotation Yrotation Xrotation
							End Site
							{
								OFFSET 0.000000 0.000000 0.000000
							}
						}
					}
				}
				JOINT LeftShoulder
				{
					OFFSET 0.000000 0.000000 0.000000
					CHANNELS 3 Zrotation Yrotation Xrotation
					JOINT LeftArm
					{
						OFFSET 2.700000 1.550000 -0.730000
						CHANNELS 3 Zrotation Yrotation Xrotation
						JOINT LeftForeArm
						{
							OFFSET 5.450000 0.000000 0.000000
							CHANNELS 3 Zrotation Yrotation Xrotation
							JOINT LeftHand
							{
								OFFSET 3.450000 0.000000 0.000000
								CHANNELS 3 Zrotation Yrotation Xrotation
								JOINT LeftHandIndex1
								{
									OFFSET 0.750000 0.000000 0.000000
									CHANNELS 3 Zrotation Yrotation Xrotation
									End Site
									{
										OFFSET 0.000000 0.000000 0.000000
									}
								}
							}
						}
					}
				}
				JOINT RightShoulder
				{
					OFFSET 0.000000 0.000000 0.000000
					CHANNELS 3 Zrotation Yrotation Xrotation
					JOINT RightArm
					{
						OFFSET -2.700000 1.550000 -0.730000
						CHANNELS 3 Zrotation Yrotation Xrotation
						JOINT RightForeArm
						{
							OFFSET -5.450000 0.000000 0.000000
							CHANNELS 3 Zrotation Yrotation Xrotation
							JOINT RightHand
							{
								OFFSET -3.450000 0.000000 0.000000
								CHANNELS 3 Zrotation Yrotation Xrotation
								JOINT RightHandIndex1
								{
									OFFSET -0.750000 0.000000 0.000000
									CHANNELS 3 Zrotation Yrotation Xrotation
									End Site
									{
										OFFSET 0.000000 0.000000 0.000000
									}
								}
							}
						}
					}
				}
			}
		}
	}
}
MOTION
Frames: 10
Frame Time: 0.016667
-2.770890 17.409880 -1.407450 -0.287865 10.798938 -7.784908 -15.970252 10.012381 8.430297 42.264017 -9.040184 -18.901961 -74.402082 10.792491 3.203754 0.965667 11.510534 0.662648 0.614420 0.691100 -0.018140 18.183278 -9.725006 -0.520410 -18.399194 -6.076957 -8.914764 -15.312191 -4.003456 27.037405 -1.030041 -5.213011 2.220999 0.469490 0.869390 1.067070 -2.336293 -2.503646 -8.883586 9.806690 -2.615369 21.930453 -0.601752 0.468618 28.973187 2.965099 10.854393 -15.005480 14.584960 -14.516118 33.048695 -1.676950 -4.906900 -25.304310 6.159231 -21.257990 14.271274 93.970964 -89.524595 -113.119782 97.679682 -61.735003 -65.275398 -4.935982 1.279148 0.821960 0.489790 0.520600 0.629650 -13.641758 8.346681 7.344386 51.837375 -1.276167 -6.188558 -26.668517 6.340544 -0.712999 1.996052 -1.671230 -0.136210 0.555010 0.166860 0.248830 
-2.572500 17.441360 -1.376760 -0.616795 11.988717 -6.691779 -16.029995 9.883675 8.494308 43.384494 -9.221136 -18.205428 -71.800309 8.704520 1.023469 0.855371 11.380156 0.692303 0.606990 0.685600 -0.046590 18.183676 -9.532599 -0.586095 -19.975114 -6.344025 -7.474905 -13.385082 -4.611979 24.496102 -0.960852 -5.142124 2.250617 0.503770 0.922040 1.089080 -2.223767 -2.688131 -8.761641 10.028146 -3.053533 19.150346 -0.733449 -0.847952 28.595146 3.317666 11.595120 -14.128105 15.929519 -15.073293 30.811163 -2.707930 -5.312430 -23.585580 6.428916 -22.028441 13.069174 -92.540921 -87.895259 75.091691 100.667811 -60.808372 -66.515231 -4.930101 1.290296 0.761410 0.564050 0.459030 0.638090 -14.659850 7.666150 6.939620 55.293148 -0.692444 -6.519796 -30.544179 4.979758 -0.515442 2.011811 -1.805164 -0.152580 0.539610 0.182800 0.254560 
-2.374360 17.446270 -1.311020 -0.876093 10.846830 -5.481498 -16.055233 9.705295 8.465842 43.968039 -8.623131 -15.500707 -69.027045 6.753208 -2.133382 0.802391 11.238112 0.759664 0.580490 0.650500 -0.062100 18.191705 -9.371047 -0.520776 -21.260954 -5.972893 -6.455771 -11.974788 -4.678472 20.880836 -0.884986 -5.004815 2.306087 0.510050 0.977070 1.109860 -2.206902 -2.538587 -8.694401 10.331036 -2.494998 15.985731 -0.539496 -1.247413 28.559774 3.681276 12.082440 -14.029126 17.064051 -15.501899 29.336369 -4.192670 -5.648610 -20.946010 7.401241 -22.549251 13.292396 -95.601104 -86.576826 79.983695 104.893273 -58.989265 -69.051317 -4.996633 1.313356 0.674180 0.641640 0.392020 0.638970 -16.319719 7.382715 6.645312 58.746010 0.430823 -6.265251 -34.167172 1.711237 0.420384 2.085447 -1.930199 -0.157290 0.517040 0.192840 0.264600 
-2.175380 17.445180 -1.257950 -0.869782 10.246484 -4.234148 -16.051428 9.584145 8.312567 43.274567 -8.265186 -13.431161 -65.009238 5.214625 -4.662336 0.654160 11.144492 0.803200 0.541680 0.563630 -0.060320 18.192731 -9.237149 -0.384457 -22.712169 -5.551239 -5.518259 -10.459133 -4.785018 17.396726 -0.825003 -4.961040 2.309551 0.517060 1.040270 1.105730 -2.213267 -2.395110 -8.604020 10.114827 -2.039943 12.915115 -0.114452 -1.791410 28.285473 3.910834 12.510112 -13.929927 18.139165 -15.834035 28.123515 -5.316490 -6.156180 -18.871760 7.572656 -22.910056 13.532727 -98.536364 -85.541074 85.178510 107.354302 -57.559912 -70.216152 -5.064263 1.334650 0.643330 0.707460 0.297520 0.604100 -16.789055 7.318383 6.123526 61.191085 2.361676 -5.360403 -38.435124 -4.206707 2.719827 2.147935 -2.009552 -0.219160 0.531620 0.246350 0.227750 
-1.980720 17.428700 -1.208100 -1.235652 9.097109 -3.135659 -16.026407 9.491077 8.088623 42.233835 -7.722037 -11.198260 -60.865217 4.224589 -6.861703 0.479917 11.131107 0.846686 0.480210 0.429500 -0.058760 18.196501 -9.127249 -0.171741 -23.357107 -4.907385 -4.792956 -9.814718 -4.568513 13.671855 -0.766652 -4.962540 2.308809 0.515750 1.145630 1.098380 -2.263777 -2.158970 -8.516149 10.401368 -1.412664 10.264247 0.362716 -2.099161 28.135858 4.339021 12.646553 -13.922187 18.805970 -16.222803 26.444456 -6.758660 -6.692900 -16.400750 6.879808 -23.044717 13.944603 -100.732885 -84.700354 90.055614 110.006107 -56.071746 -71.529764 -5.159899 1.342792 0.622050 0.798550 0.171980 0.564540 -16.734505 7.466161 5.701204 63.515219 3.685590 -5.050254 -43.279484 -8.676048 5.006450 2.145798 -2.085969 -0.319860 0.576000 0.323660 0.176910 
-1.778640 17.397040 -1.180240 -1.661695 9.339514 -2.025137 -15.981167 9.478094 7.832506 40.887901 -7.577577 -10.714479 -57.495260 4.081754 -7.345661 0.333671 11.104549 0.862628 0.453430 0.353970 -0.040220 18.205459 -9.079731 0.023214 -23.891604 -4.541500 -4.109871 -9.119347 -4.522347 11.134569 -0.741318 -5.047767 2.263311 0.529090 1.205280 1.096430 -2.333592 -2.017830 -8.424404 10.668428 -1.341509 7.911228 1.553308 -2.971085 27.370977 4.257781 12.565112 -13.757811 18.980498 -16.735810 25.066230 -8.042930 -7.335560 -14.636220 6.276228 -23.073740 14.094275 -103.234700 -83.442517 94.333130 112.378623 -54.915303 -72.903491 -5.239174 1.387128 0.591560 0.858600 0.083180 0.528800 -15.740276 7.728870 5.126443 64.724041 4.995298 -4.967078 -49.229980 -14.036139 8.405583 2.154601 -2.171711 -0.378680 0.597150 0.376590 0.139950 
-1.579960 17.395380 -1.177650 -2.119685 9.557469 -2.425102 -15.877723 9.465960 7.557970 39.402665 -7.598932 -9.638459 -55.277319 4.296487 -6.947873 0.189890 11.083655 0.848681 0.488190 0.337260 0.022320 18.246398 -9.184135 0.241397 -24.338929 -4.410698 -2.667698 -8.714183 -4.591916 9.397731 -0.794326 -5.197695 2.188950 0.552910 1.197470 1.090350 -2.536577 -1.640088 -8.433644 11.499237 -0.990571 7.439605 2.401368 -3.337329 28.123233 4.128240 12.356753 -14.470034 19.099219 -16.601088 24.656568 -7.919540 -7.684320 -15.358690 5.502369 -24.415476 15.849235 -95.175460 -86.121097 88.041648 114.642198 -55.661253 -76.333554 -5.250483 1.282923 0.655430 0.838820 0.070800 0.505580 -14.556191 9.550536 4.735671 64.709309 6.876457 -5.602382 -53.192158 -22.643686 13.684686 2.207460 -2.165009 -0.425610 0.624040 0.399070 0.089200 
-1.398810 17.377960 -1.172270 -2.295663 10.838672 -2.855843 -15.813253 9.615087 7.312559 38.042102 -7.878389 -9.917983 -53.756266 5.198503 -5.013119 0.094803 11.062466 0.825972 0.508710 0.340080 0.066820 18.242791 -9.367639 0.346384 -24.626835 -4.589626 -1.518151 -8.488728 -4.789049 9.537404 -0.834031 -5.337040 2.120539 0.566300 1.174190 1.087560 -2.615094 -1.494097 -8.440415 11.250745 -0.922201 7.392527 3.950262 -3.842813 28.322806 3.794147 12.246883 -15.349181 19.335900 -16.835222 24.146279 -8.424460 -7.804380 -15.766730 4.981924 -25.018007 17.574983 -88.121388 -88.485585 82.257583 116.831179 -56.457694 -80.174225 -5.285901 1.190389 0.691320 0.822220 0.079070 0.487970 -13.291409 10.649698 4.413339 64.577826 7.675773 -7.045947 -57.067593 -27.406950 17.220551 2.236926 -2.178980 -0.444900 0.626070 0.400040 0.061700 
-1.239050 17.359400 -1.143160 -2.241265 10.248922 -3.384586 -15.764385 9.850925 7.064804 37.018559 -7.729604 -9.808383 -53.462046 6.925385 -2.252315 0.087585 11.140560 0.782475 0.503240 0.313630 0.094140 18.217681 -9.573661 0.446821 -24.835912 -4.606770 -1.391913 -8.343183 -4.895022 10.028687 -0.839248 -5.366911 2.092798 0.540940 1.144650 1.092440 -2.674268 -1.394085 -8.506878 10.422872 -0.289905 8.129693 6.062539 -3.581525 28.242320 3.015165 12.019876 -16.564156 19.258411 -16.722903 23.937543 -8.741360 -7.396750 -15.684780 4.257464 -24.817210 19.518110 100.330196 -89.535236 -105.557644 119.227552 -57.384494 -86.018646 -5.398880 1.174825 0.708070 0.805080 0.086240 0.463390 -10.984236 11.485118 4.090322 63.500173 7.403554 -9.597317 -61.844020 -28.281394 18.419992 2.218454 -2.244159 -0.439790 0.596180 0.403680 0.041230 
-1.104770 17.353630 -1.125700 -1.800799 8.872567 -3.391632 -15.764460 10.163617 6.821111 35.774588 -7.260069 -10.450604 -53.388792 9.027011 0.945193 0.108346 11.231233 0.762222 0.477830 0.303020 0.078250 18.151629 -9.788296 0.459789 -24.581573 -4.402607 -2.650951 -8.949111 -4.733427 11.354300 -0.783412 -5.277421 2.128960 0.536570 1.161900 1.074570 -2.599133 -1.395152 -8.461474 8.492910 0.441838 8.859198 8.573248 -2.986261 26.936989 2.479598 11.771813 -16.898333 18.980401 -16.456268 24.138213 -9.181430 -6.788540 -14.577430 3.288384 -24.344856 19.132069 -72.364167 -88.206470 67.497600 121.740620 -58.231192 -94.795176 -5.462544 1.493962 0.678170 0.827790 0.067750 0.464470 -8.612586 12.646032 3.980983 61.500874 8.092415 -11.031776 -65.689194 -30.039703 20.107731 2.210704 -2.296017 -0.449320 0.598610 0.395640 0.048810 
